<svg xmlns="http://www.w3.org/2000/svg" xmlns:xlink="http://www.w3.org/1999/xlink" xmlns:inkscape="http://www.inkscape.org/namespaces/inkscape" version="1.1" width="1683.78" height="2383.94" viewBox="0 0 1683.78 2383.94">
<defs>
<clipPath id="clip_1">
<path transform="matrix(1,0,0,-1,0,2383.94)" d="M0 2383.937H1683.78V0H0Z"/>
</clipPath>
</defs>
<g inkscape:groupmode="layer" inkscape:label="Capa 1">
<g clip-path="url(#clip_1)">
<path transform="matrix(1,0,0,-1,303.8379,1302.7888)" d="M0 0V220.909H158.396V176.42H78.24C63.512 176.42 52.774 167.829 52.774 154.33 52.774 142.058 63.205 131.625 76.706 131.625H148.808V89.592H76.706C63.205 89.592 52.774 79.159 52.774 67.5 52.774 53.387 63.512 44.489 78.24 44.489L299.428 46.942C310.78 46.942 317.223 54.614 317.223 62.591 317.223 69.955 312.927 77.011 303.108 79.467L229.473 98.182C195.722 106.773 179.46 132.546 179.46 158.318 179.46 190.227 201.86 220.909 245.12 220.909H355.882V173.967H250.95C239.598 173.967 234.074 167.216 233.768 159.547 233.768 152.796 237.756 146.045 247.268 143.592L320.291 125.182C354.961 116.592 370.61 90.512 370.61 64.431 370.61 31.909 347.905 0 303.724 0Z" fill="#ffffff"/>
<path transform="matrix(1,0,0,-1,647.2695,1193.4678)" d="M0 0C.096 .376 .193 .752 .292 1.13 17.597 67.095 77.177 115.264 140.995 115.264 189.166 115.264 220.662 87.956 225.509 45.619L170.887 32.729C166.608 52.673 150.968 65.559 127.956 65.559 93.899 65.559 62.028 37.639 52.529 1.435 43.273-33.848 61.042-60.846 94.791-60.846 120.87-60.846 145.309-44.892 159.707-21.573L205.855-36.301C179.587-82.628 132.038-113.001 81.106-113.001 52.332-113.001 29.574-103.146 14.835-86.305" fill="#ffffff"/>
<path transform="matrix(1,0,0,-1,887.3071,1081.8877)" d="M0 0H52.774L15.826-140.823C10.191-162.3 19.096-173.959 40.266-173.959L98.256-175.452 72.644-220.901H-57.958Z" fill="#ffffff"/>
<path transform="matrix(1,0,0,-1,1121.3383,1209.8251)" d="M0 0-3.757 93.266-56.762 0ZM2.038-46.021H-82.95L-109.687-92.964H-162.459L-36.388 127.937H46.453L59.063-92.964H4.142Z" fill="#ffffff"/>
<path transform="matrix(1,0,0,-1,1248.5462,1126.3728)" d="M0 0H-78.94L-82.3 44.485 130.616 44.426 118.943-.059 53.08 0 25.284-176.416H-27.796Z" fill="#ffffff"/>
</g>
</g>
</svg>
