<svg xmlns="http://www.w3.org/2000/svg" xmlns:xlink="http://www.w3.org/1999/xlink" xmlns:inkscape="http://www.inkscape.org/namespaces/inkscape" version="1.1" width="595.276" height="841.89" viewBox="0 0 595.276 841.89">
<g inkscape:groupmode="layer" inkscape:label="Capa 1">
<path transform="matrix(1,0,0,-1,0,841.89)" d="M333.672 556.318H273.213V567.028H333.672Z" fill="#181918"/>
<path transform="matrix(1,0,0,-1,0,841.89)" d="M332.03 535.68H274.857V546.39H332.03Z" fill="#181918"/>
<path transform="matrix(1,0,0,-1,0,841.89)" d="M330.387 515.043H276.5V525.75308H330.387Z" fill="#181918"/>
<path transform="matrix(1,0,0,-1,0,841.89)" d="M328.744 494.406H278.142V505.116H328.744Z" fill="#181918"/>
<path transform="matrix(1,0,0,-1,0,841.89)" d="M327.101 473.769H279.785V484.479H327.101Z" fill="#181918"/>
<path transform="matrix(1,0,0,-1,0,841.89)" d="M325.458 453.132H281.428V463.84199H325.458Z" fill="#181918"/>
<path transform="matrix(1,0,0,-1,0,841.89)" d="M323.815 432.495H283.071V443.205H323.815Z" fill="#181918"/>
<path transform="matrix(1,0,0,-1,0,841.89)" d="M322.172 411.857H284.714V422.567H322.172Z" fill="#181918"/>
<path transform="matrix(1,0,0,-1,0,841.89)" d="M320.529 391.22H286.357V401.93H320.529Z" fill="#181918"/>
<path transform="matrix(1,0,0,-1,0,841.89)" d="M222.181 556.389H161.722V567.099H222.181Z" fill="#181918"/>
<path transform="matrix(1,0,0,-1,0,841.89)" d="M227.932 535.734H170.759V546.44406H227.932Z" fill="#181918"/>
<path transform="matrix(1,0,0,-1,0,841.89)" d="M233.684 515.079H179.797V525.789H233.684Z" fill="#181918"/>
<path transform="matrix(1,0,0,-1,0,841.89)" d="M239.436 494.424H188.834V505.134H239.436Z" fill="#181918"/>
<path transform="matrix(1,0,0,-1,0,841.89)" d="M245.187 473.769H197.871V484.479H245.187Z" fill="#181918"/>
<path transform="matrix(1,0,0,-1,0,841.89)" d="M250.939 453.114H206.909V463.824H250.939Z" fill="#181918"/>
<path transform="matrix(1,0,0,-1,0,841.89)" d="M256.691 432.459H215.947V443.169H256.691Z" fill="#181918"/>
<path transform="matrix(1,0,0,-1,0,841.89)" d="M262.443 411.803H224.98499V422.513H262.443Z" fill="#181918"/>
<path transform="matrix(1,0,0,-1,0,841.89)" d="M268.195 391.148H234.022V401.858H268.195Z" fill="#181918"/>
<path transform="matrix(1,0,0,-1,0,841.89)" d="M384.705 556.389H445.164V567.099H384.705Z" fill="#181918"/>
<path transform="matrix(1,0,0,-1,0,841.89)" d="M378.954 535.734H436.127V546.44406H378.954Z" fill="#181918"/>
<path transform="matrix(1,0,0,-1,0,841.89)" d="M373.202 515.079H427.089V525.789H373.202Z" fill="#181918"/>
<path transform="matrix(1,0,0,-1,0,841.89)" d="M367.45 494.424H418.052V505.134H367.45Z" fill="#181918"/>
<path transform="matrix(1,0,0,-1,0,841.89)" d="M361.698 473.769H409.014V484.479H361.698Z" fill="#181918"/>
<path transform="matrix(1,0,0,-1,0,841.89)" d="M355.947 453.114H399.977V463.824H355.947Z" fill="#181918"/>
<path transform="matrix(1,0,0,-1,0,841.89)" d="M350.195 432.459H390.939V443.169H350.195Z" fill="#181918"/>
<path transform="matrix(1,0,0,-1,0,841.89)" d="M344.443 411.803H381.901V422.513H344.443Z" fill="#181918"/>
<path transform="matrix(1,0,0,-1,0,841.89)" d="M338.69 391.148H372.862V401.858H338.69Z" fill="#181918"/>
<path transform="matrix(1,0,0,-1,0,841.89)" d="M92.466 556.318H57.097005V567.028H92.466Z" fill="#181918"/>
<path transform="matrix(1,0,0,-1,0,841.89)" d="M195.851 391.22H179.505V401.93H195.851Z" fill="#181918"/>
<path transform="matrix(1,0,0,-1,0,841.89)" d="M105.454 535.681H72.463V546.39108H105.454Z" fill="#181918"/>
<path transform="matrix(1,0,0,-1,0,841.89)" d="M118.444 515.044H87.831V525.754H118.444Z" fill="#181918"/>
<path transform="matrix(1,0,0,-1,0,841.89)" d="M130.905 494.406H102.67V505.116H130.905Z" fill="#181918"/>
<path transform="matrix(1,0,0,-1,0,841.89)" d="M143.894 473.769H118.036998V484.479H143.894Z" fill="#181918"/>
<path transform="matrix(1,0,0,-1,0,841.89)" d="M156.883 453.132H133.40399V463.84199H156.883Z" fill="#181918"/>
<path transform="matrix(1,0,0,-1,0,841.89)" d="M169.873 432.494H148.772V443.20399H169.873Z" fill="#181918"/>
<path transform="matrix(1,0,0,-1,0,841.89)" d="M182.862 411.857H164.139V422.567H182.862Z" fill="#181918"/>
<path transform="matrix(1,0,0,-1,0,841.89)" d="M513.98 555.732H549.349V566.442H513.98Z" fill="#181918"/>
<path transform="matrix(1,0,0,-1,0,841.89)" d="M411.475 391.806H427.821V402.516H411.475Z" fill="#181918"/>
<path transform="matrix(1,0,0,-1,0,841.89)" d="M500.992 535.241H533.98306V545.95108H500.992Z" fill="#181918"/>
<path transform="matrix(1,0,0,-1,0,841.89)" d="M488.003 514.75H518.61599V525.46H488.003Z" fill="#181918"/>
<path transform="matrix(1,0,0,-1,0,841.89)" d="M475.013 494.26H503.248V504.97H475.013Z" fill="#181918"/>
<path transform="matrix(1,0,0,-1,0,841.89)" d="M462.024 473.769H487.88099V484.479H462.024Z" fill="#181918"/>
<path transform="matrix(1,0,0,-1,0,841.89)" d="M449.035 453.278H472.514V463.988H449.035Z" fill="#181918"/>
<path transform="matrix(1,0,0,-1,0,841.89)" d="M436.045 432.788H457.14604V443.498H436.045Z" fill="#181918"/>
<path transform="matrix(1,0,0,-1,0,841.89)" d="M423.899 412.297H442.62199V423.007H423.899Z" fill="#181918"/>
<path transform="matrix(1,0,0,-1,0,841.89)" d="M322.502 305.102H262.04304V294.392H322.502Z" fill="#181918"/>
<path transform="matrix(1,0,0,-1,0,841.89)" d="M320.859 325.739H263.686V315.02903H320.859Z" fill="#181918"/>
<path transform="matrix(1,0,0,-1,0,841.89)" d="M319.216 346.376H265.329V335.66603H319.216Z" fill="#181918"/>
<path transform="matrix(1,0,0,-1,0,841.89)" d="M317.573 367.013H266.971V356.303H317.573Z" fill="#181918"/>
<path transform="matrix(1,0,0,-1,0,841.89)" d="M315.93 387.65H268.61399V376.94H315.93Z" fill="#181918"/>
<path transform="matrix(1,0,0,-1,0,841.89)" d="M314.287 408.288H270.257V397.578H314.287Z" fill="#181918"/>
<path transform="matrix(1,0,0,-1,0,841.89)" d="M312.644 428.925H271.90003V418.215H312.644Z" fill="#181918"/>
<path transform="matrix(1,0,0,-1,0,841.89)" d="M311.001 449.562H273.543V438.85203H311.001Z" fill="#181918"/>
<path transform="matrix(1,0,0,-1,0,841.89)" d="M309.359 470.199H275.186V459.489H309.359Z" fill="#181918"/>
<path transform="matrix(1,0,0,-1,0,841.89)" d="M211.01 305.03H150.551V294.32H211.01Z" fill="#181918"/>
<path transform="matrix(1,0,0,-1,0,841.89)" d="M216.761 325.685H159.588V314.975H216.761Z" fill="#181918"/>
<path transform="matrix(1,0,0,-1,0,841.89)" d="M222.513 346.34H168.626V335.63H222.513Z" fill="#181918"/>
<path transform="matrix(1,0,0,-1,0,841.89)" d="M228.265 366.995H177.663V356.285H228.265Z" fill="#181918"/>
<path transform="matrix(1,0,0,-1,0,841.89)" d="M234.017 387.65H186.70099V376.94H234.017Z" fill="#181918"/>
<path transform="matrix(1,0,0,-1,0,841.89)" d="M239.769 408.306H195.739V397.596H239.769Z" fill="#181918"/>
<path transform="matrix(1,0,0,-1,0,841.89)" d="M245.521 428.961H204.777V418.251H245.521Z" fill="#181918"/>
<path transform="matrix(1,0,0,-1,0,841.89)" d="M251.272 449.616H213.814V438.906H251.272Z" fill="#181918"/>
<path transform="matrix(1,0,0,-1,0,841.89)" d="M257.025 470.271H222.85199V459.561H257.025Z" fill="#181918"/>
<path transform="matrix(1,0,0,-1,0,841.89)" d="M373.535 305.03H433.99403V294.32H373.535Z" fill="#181918"/>
<path transform="matrix(1,0,0,-1,0,841.89)" d="M367.783 325.685H424.956V314.975H367.783Z" fill="#181918"/>
<path transform="matrix(1,0,0,-1,0,841.89)" d="M362.031 346.34H415.918V335.63H362.031Z" fill="#181918"/>
<path transform="matrix(1,0,0,-1,0,841.89)" d="M356.28 366.995H406.882V356.285H356.28Z" fill="#181918"/>
<path transform="matrix(1,0,0,-1,0,841.89)" d="M350.528 387.65H397.84403V376.94H350.528Z" fill="#181918"/>
<path transform="matrix(1,0,0,-1,0,841.89)" d="M344.776 408.306H388.806V397.596H344.776Z" fill="#181918"/>
<path transform="matrix(1,0,0,-1,0,841.89)" d="M339.024 428.961H379.76799V418.251H339.024Z" fill="#181918"/>
<path transform="matrix(1,0,0,-1,0,841.89)" d="M333.272 449.616H370.73V438.906H333.272Z" fill="#181918"/>
<path transform="matrix(1,0,0,-1,0,841.89)" d="M327.52 470.271H361.693V459.561H327.52Z" fill="#181918"/>
<path transform="matrix(1,0,0,-1,0,841.89)" d="M81.296 305.101H45.927V294.39103H81.296Z" fill="#181918"/>
<path transform="matrix(1,0,0,-1,0,841.89)" d="M184.68 470.2H168.33399V459.49003H184.68Z" fill="#181918"/>
<path transform="matrix(1,0,0,-1,0,841.89)" d="M94.284 325.738H61.292997V315.028H94.284Z" fill="#181918"/>
<path transform="matrix(1,0,0,-1,0,841.89)" d="M107.273 346.376H76.66V335.66603H107.273Z" fill="#181918"/>
<path transform="matrix(1,0,0,-1,0,841.89)" d="M119.734 367.013H91.499V356.303H119.734Z" fill="#181918"/>
<path transform="matrix(1,0,0,-1,0,841.89)" d="M132.723 387.65H106.866008V376.94H132.723Z" fill="#181918"/>
<path transform="matrix(1,0,0,-1,0,841.89)" d="M145.713 408.288H122.23399V397.578H145.713Z" fill="#181918"/>
<path transform="matrix(1,0,0,-1,0,841.89)" d="M158.702 428.925H137.601V418.215H158.702Z" fill="#181918"/>
<path transform="matrix(1,0,0,-1,0,841.89)" d="M171.691 449.562H152.96799V438.85203H171.691Z" fill="#181918"/>
<path transform="matrix(1,0,0,-1,0,841.89)" d="M502.809 305.688H538.178V294.978H502.809Z" fill="#181918"/>
<path transform="matrix(1,0,0,-1,0,841.89)" d="M400.304 469.613H416.65V458.903H400.304Z" fill="#181918"/>
<path transform="matrix(1,0,0,-1,0,841.89)" d="M489.821 326.178H522.812V315.46803H489.821Z" fill="#181918"/>
<path transform="matrix(1,0,0,-1,0,841.89)" d="M476.832 346.669H507.445V335.959H476.832Z" fill="#181918"/>
<path transform="matrix(1,0,0,-1,0,841.89)" d="M463.843 367.16H492.078V356.45H463.843Z" fill="#181918"/>
<path transform="matrix(1,0,0,-1,0,841.89)" d="M450.853 387.65H476.71V376.94H450.853Z" fill="#181918"/>
<path transform="matrix(1,0,0,-1,0,841.89)" d="M437.864 408.141H461.34303V397.431H437.864Z" fill="#181918"/>
<path transform="matrix(1,0,0,-1,0,841.89)" d="M424.875 428.632H445.976V417.922H424.875Z" fill="#181918"/>
<path transform="matrix(1,0,0,-1,0,841.89)" d="M412.729 449.122H431.452V438.41203H412.729Z" fill="#181918"/>
</g>
</svg>
